<svg width="117" height="119" viewBox="0 0 117 119" fill="none" xmlns="http://www.w3.org/2000/svg">
<circle cx="92" cy="25" r="24.5" stroke="#8AE5A2"/>
<circle cx="30" cy="89" r="29.5" stroke="#0142C5"/>
<circle cx="58" cy="59" r="43" fill="#DC5354"/>
<circle cx="5" cy="5" r="5" transform="matrix(1 0 0 -1 5 16)" fill="#FBD15B"/>
<circle cx="5" cy="5" r="5" transform="matrix(1 0 0 -1 101 112)" fill="#FBD15B"/>
<path d="M76.7027 58.5067C76.1576 56.3739 74.8892 55.3322 72.7783 55.3025C72.5405 55.3025 72.5603 55.1834 72.5603 55.0346C72.59 53.9533 72.5206 52.8819 72.3125 51.8304C70.7864 44.0033 63.334 38.815 55.5249 40.2336C50.3617 41.1661 46.7545 44.1719 44.6238 48.9436C43.7715 50.8483 43.4445 52.8819 43.4941 54.9652C43.4941 55.1437 43.5535 55.3025 43.2364 55.3025C41.4526 55.2826 40.1841 56.1258 39.5796 57.8123C38.8363 59.8757 38.8462 61.9887 39.3913 64.0819C39.8967 66.0163 41.0661 67.0084 42.8004 67.1869C43.0283 67.2068 43.3355 67.0778 43.4544 67.2465C43.5634 67.4052 43.4842 67.7028 43.4941 67.9309C43.504 68.6254 43.9598 69.0817 44.6535 69.0817C46.1004 69.0817 47.5473 69.0817 48.9942 69.0817C49.7077 69.0817 50.1635 68.6254 50.1635 67.9012C50.1635 63.4768 50.1635 59.0424 50.1635 54.618C50.1635 53.874 49.7077 53.4275 48.9644 53.4275C47.9833 53.4275 47.0121 53.4176 46.031 53.4275C45.813 53.4275 45.7536 53.368 45.7932 53.1597C45.8626 52.7728 45.922 52.376 46.0013 51.999C47.3491 45.5409 53.6717 41.1364 60.4006 42.4657C65.6827 43.5073 69.617 47.8127 70.2512 53.1399C70.281 53.3978 70.1918 53.4375 69.9639 53.4375C68.9927 53.4275 68.0116 53.4275 67.0305 53.4375C66.3566 53.4375 65.8809 53.8938 65.8809 54.5684C65.8809 59.0325 65.8809 63.4966 65.8809 67.9607C65.8809 68.6353 66.3467 69.0916 67.0305 69.0916C67.7936 69.0916 68.5665 69.0817 69.3296 69.0916C69.6566 69.0916 70.0927 68.9428 70.281 69.1611C70.4395 69.3396 70.3305 69.7761 70.3305 70.0936C70.3107 72.0975 68.8737 73.5359 66.862 73.5458C65.8115 73.5557 64.7611 73.5359 63.7106 73.5557C63.4728 73.5557 63.3737 73.4764 63.2746 73.278C62.6502 72.0181 61.6394 71.3435 60.2123 71.3237C59.4691 71.3137 58.7258 71.3137 57.9925 71.3237C56.3573 71.3336 55.0294 72.4744 54.7123 74.1311C54.4348 75.5795 55.3267 77.1667 56.7438 77.7619C56.9718 77.8512 57.2195 77.8611 57.4276 78C58.5375 78 59.6475 78 60.7673 78C61.2133 77.9306 61.6592 77.8611 62.0556 77.5933C62.5808 77.2361 63.0169 76.8096 63.2944 76.2441C63.4529 75.9366 63.6511 75.8572 63.9683 75.8671C65.0187 75.887 66.0692 75.8771 67.1197 75.8771C70.0828 75.8771 72.6594 73.2978 72.6594 70.3217C72.6594 69.4587 72.6693 68.5956 72.6495 67.7226C72.6396 67.4151 72.7288 67.2762 73.0558 67.2762C73.7198 67.2762 74.354 67.1274 74.9189 66.7604C75.8405 66.1751 76.3658 65.3021 76.7126 64.2902C76.9108 63.7248 76.9207 63.1295 77 62.5542C77 61.6911 77 60.8181 77 59.9551C76.9108 59.469 76.8315 58.9829 76.7027 58.5067ZM43.1769 64.9549C42.513 64.9846 42.0769 64.6771 41.7895 64.1117C41.4526 63.447 41.3733 62.7228 41.3138 61.9986C41.2247 60.9372 41.2742 59.8757 41.5814 58.844C41.7796 58.1793 42.1067 57.6139 42.9094 57.5345C43.4148 57.4849 43.4941 57.5444 43.4941 58.0603C43.4941 59.1218 43.4941 60.1832 43.4941 61.2447C43.4941 62.3657 43.4842 63.4966 43.504 64.6176C43.504 64.8854 43.4247 64.945 43.1769 64.9549ZM46.0112 55.6497C46.5563 55.6695 47.1013 55.6695 47.6464 55.6497C47.8842 55.6398 47.9536 55.7092 47.9536 55.9572C47.9437 57.723 47.9437 59.4987 47.9437 61.2645C47.9437 63.0204 47.9338 64.7763 47.9536 66.5322C47.9536 66.81 47.8941 66.8893 47.6167 66.8794C47.1013 66.8496 46.5761 66.8496 46.0608 66.8794C45.7833 66.8893 45.7139 66.8199 45.7139 66.5421C45.7238 64.0521 45.7238 61.5721 45.7238 59.0821C45.7238 58.0405 45.7337 57.0088 45.7139 55.9671C45.7139 55.7092 45.7734 55.6398 46.0112 55.6497ZM70.0035 66.8695C69.4882 66.8397 68.9629 66.8397 68.4476 66.8695C68.1701 66.8794 68.1107 66.8 68.1107 66.5223C68.1206 63.824 68.1206 61.1257 68.1206 58.4373C68.1206 57.594 68.1305 56.7508 68.1206 55.9175C68.1206 55.7092 68.18 55.6497 68.3881 55.6497C68.9431 55.6596 69.4981 55.6695 70.053 55.6497C70.3008 55.6398 70.3603 55.7191 70.3503 55.9572C70.3404 57.7428 70.3404 59.5186 70.3404 61.3042C70.3404 63.0502 70.3305 64.7961 70.3503 66.5322C70.3503 66.81 70.281 66.8794 70.0035 66.8695ZM60.2123 75.7679C59.8556 75.7779 59.4988 75.7679 59.1421 75.7679C58.7853 75.7679 58.4285 75.7779 58.0718 75.7679C57.4276 75.7481 56.9222 75.2521 56.9321 74.647C56.9321 74.0418 57.4375 73.5557 58.0817 73.5458C58.7952 73.5359 59.5087 73.5359 60.2322 73.5458C60.8763 73.5557 61.3817 74.0617 61.3817 74.6569C61.3619 75.262 60.8565 75.7481 60.2123 75.7679ZM74.4927 63.5462C74.4036 63.8636 74.2648 64.1712 74.0666 64.439C73.7198 64.8953 73.2441 64.9846 72.7089 64.935C72.4711 64.9152 72.5702 64.7366 72.5702 64.6275C72.5603 63.5065 72.5702 62.3756 72.5702 61.2546C72.5702 60.1336 72.5801 59.0027 72.5603 57.8817C72.5603 57.6139 72.6495 57.5444 72.8873 57.5345C73.4324 57.5048 73.8783 57.6833 74.1756 58.1595C74.4828 58.6456 74.6117 59.2011 74.6909 59.7666C74.8495 61.0364 74.8297 62.3062 74.4927 63.5462Z" fill="white"/>
</svg>
