<svg width="117" height="119" viewBox="0 0 117 119" fill="none" xmlns="http://www.w3.org/2000/svg">
<circle cx="92" cy="25" r="24.5" stroke="#79DEEA"/>
<circle cx="30" cy="89" r="29.5" stroke="#8AE5A2"/>
<circle cx="58" cy="59" r="43" fill="#0A335B"/>
<circle cx="5" cy="5" r="5" transform="matrix(1 0 0 -1 5 16)" fill="#FBD15B"/>
<circle cx="5" cy="5" r="5" transform="matrix(1 0 0 -1 101 112)" fill="#FBD15B"/>
<path d="M66.0542 57.6075C65.7568 57.5304 65.7128 57.4092 65.7128 57.1448C65.7238 54.9859 65.7128 52.8379 65.7238 50.679C65.7348 49.5995 65.6357 48.5421 65.3823 47.4956C64.6994 44.6097 63.2785 42.1643 61.0204 40.2257C60.0621 39.3995 58.9495 38.8929 57.6497 38.9479C56.4161 39.003 55.3696 39.5317 54.4774 40.3358C51.6135 42.9244 50.0493 46.1628 49.9172 50.0181C49.8401 52.3863 49.8951 54.7656 49.9062 57.1448C49.9062 57.4202 49.8511 57.5304 49.5647 57.6075C46.6457 58.3895 44.6189 61.0001 44.6299 63.9301C44.6299 64.7673 45.1697 65.318 46.0178 65.318C47.2625 65.318 48.5183 65.329 49.763 65.307C50.0273 65.307 50.1485 65.3731 50.2807 65.6264C51.0077 67.1135 52.1973 67.9176 53.8606 67.9396C55.1824 67.9616 56.4932 67.9396 57.815 67.9396C59.1148 67.9396 60.4255 67.9506 61.7253 67.9396C63.4327 67.9176 64.6333 67.1025 65.3713 65.5934C65.4815 65.3731 65.5806 65.307 65.8229 65.307C67.1007 65.318 68.3784 65.318 69.6562 65.307C70.4493 65.307 71 64.7562 71 63.9632C71.011 61.0221 68.9843 58.4005 66.0542 57.6075ZM49.6308 62.6744C48.9258 62.6634 48.2319 62.6744 47.5269 62.6744C47.7472 61.6941 48.7496 60.6807 49.8841 60.2951C49.8841 61.0331 49.8731 61.7271 49.8841 62.4321C49.8951 62.6303 49.829 62.6854 49.6308 62.6744ZM63.0692 63.7318C63.0692 64.8003 62.5515 65.307 61.472 65.307C59.0156 65.307 56.5593 65.307 54.1029 65.307C53.0344 65.307 52.5167 64.7893 52.5167 63.7208C52.5167 59.3148 52.4947 54.9088 52.5277 50.5027C52.5498 47.5177 53.6513 44.9511 55.7001 42.8032C55.9314 42.5609 56.1958 42.3296 56.4711 42.1203C57.4294 41.4153 58.1785 41.4153 59.1258 42.1203C59.8528 42.66 60.4145 43.3429 60.9433 44.0699C62.3862 46.0526 63.0692 48.2777 63.0692 50.723C63.0692 52.8049 63.0692 54.8978 63.0692 56.9796C63.0692 59.2267 63.0802 61.4848 63.0692 63.7318ZM65.9441 62.6744C65.7679 62.6744 65.7128 62.6303 65.7128 62.4431C65.7238 61.7271 65.7128 61.0221 65.7128 60.2731C66.8804 60.7247 67.6624 61.5068 68.1141 62.6744C67.365 62.6744 66.6491 62.6634 65.9441 62.6744Z" fill="white"/>
<path d="M59.115 71.9711C59.115 71.167 58.5643 70.5942 57.8042 70.5942C57.0332 70.5942 56.4824 71.156 56.4824 71.9601C56.4824 73.6895 56.4824 75.4188 56.4824 77.1482C56.4824 77.9413 57.0552 78.5141 57.8152 78.5141C58.5533 78.5141 59.115 77.9413 59.126 77.1702C59.126 76.3 59.126 75.4409 59.126 74.5707C59.115 73.7005 59.126 72.8303 59.115 71.9711Z" fill="white"/>
<path d="M53.8382 70.583C53.1112 70.583 52.5384 71.1448 52.5274 71.8718C52.5163 72.3124 52.5274 72.753 52.5274 73.1936C52.5274 73.6562 52.5163 74.1299 52.5274 74.5925C52.5384 75.2975 53.1222 75.8482 53.8271 75.8592C54.5541 75.8592 55.1489 75.3085 55.16 74.5815C55.171 73.6782 55.171 72.775 55.16 71.8608C55.1489 71.1448 54.5651 70.583 53.8382 70.583Z" fill="white"/>
<path d="M63.0696 71.8721C63.0586 71.1452 62.4748 70.5834 61.7478 70.5944C61.0208 70.5944 60.448 71.1562 60.437 71.8832C60.426 72.7754 60.426 73.6676 60.437 74.5598C60.448 75.2978 61.0098 75.8596 61.7368 75.8596C62.4858 75.8596 63.0586 75.3088 63.0696 74.5488C63.0806 74.1082 63.0696 73.6676 63.0696 73.227C63.0696 72.7754 63.0806 72.3238 63.0696 71.8721Z" fill="white"/>
<path d="M57.7933 48.1675C55.6013 48.1675 53.8389 49.9189 53.8389 52.0999C53.8389 54.3139 55.5903 56.0763 57.7933 56.0763C59.9853 56.0763 61.7477 54.3249 61.7477 52.1439C61.7587 49.9299 60.0073 48.1675 57.7933 48.1675ZM57.8373 53.4437C57.1324 53.4657 56.4935 52.8489 56.4825 52.1329C56.4825 51.439 57.0883 50.8221 57.7823 50.8111C58.4762 50.8001 59.0931 51.3949 59.1151 52.0999C59.1371 52.7828 58.5313 53.4217 57.8373 53.4437Z" fill="white"/>
</svg>
