<svg width="117" height="119" viewBox="0 0 117 119" fill="none" xmlns="http://www.w3.org/2000/svg">
<circle cx="92" cy="25" r="24.5" stroke="#DC5354"/>
<circle cx="30" cy="89" r="29.5" stroke="#FBD15B"/>
<circle cx="58" cy="59" r="43" fill="#0142C5"/>
<circle cx="5" cy="5" r="5" transform="matrix(1 0 0 -1 5 16)" fill="#FBD15B"/>
<circle cx="5" cy="5" r="5" transform="matrix(1 0 0 -1 101 112)" fill="#FBD15B"/>
<path d="M77.2811 62.6495C76.8468 61.7315 76.4027 60.8136 75.9388 59.9055C75.6821 59.412 75.6821 58.9382 75.9388 58.4447C76.4027 57.5366 76.8468 56.6187 77.2811 55.7007C78.1892 53.7859 77.5674 51.8611 75.7019 50.8544C74.8037 50.3707 73.9055 49.8871 72.9974 49.4231C72.5137 49.1764 72.2374 48.8112 72.1485 48.2782C71.9906 47.3109 71.7932 46.3436 71.655 45.3763C71.349 43.2936 69.6316 41.9809 67.7167 42.2276C66.7988 42.3461 65.8611 42.4349 64.953 42.6126C64.0943 42.7902 63.4132 42.652 62.8013 41.9611C62.1992 41.2801 61.5181 40.6878 60.8568 40.066C59.3466 38.6447 57.3133 38.6447 55.813 40.066C55.053 40.7865 54.3028 41.517 53.5527 42.2572C53.1776 42.6224 52.7631 42.7508 52.2301 42.6718C51.095 42.4941 49.95 42.3263 48.805 42.2178C47.1369 42.05 45.6268 43.1357 45.1826 44.7742C44.926 45.7217 44.768 46.6989 44.6496 47.6662C44.541 48.6236 44.1659 49.285 43.2283 49.6699C42.4485 49.9956 41.7181 50.4398 40.9679 50.8544C39.132 51.8611 38.5102 53.7957 39.4183 55.7106C39.8328 56.5693 40.2277 57.4379 40.6817 58.2769C41.0173 58.9086 41.0173 59.4613 40.6718 60.093C40.2178 60.9222 39.8328 61.7809 39.4282 62.6297C38.4905 64.5841 39.1222 66.5088 41.037 67.5255C41.9056 67.9894 42.7545 68.4631 43.6428 68.8974C44.2252 69.1837 44.4818 69.618 44.5805 70.2398C44.768 71.3848 44.8964 72.5495 45.2122 73.6747C45.6761 75.3132 47.1764 76.2706 48.7458 76.1522C49.7723 76.0831 50.7989 75.9153 51.8155 75.7278C52.6347 75.5698 53.3158 75.6982 53.8488 76.3792C54.0265 76.6062 54.2535 76.7839 54.4706 76.9813C55.4577 77.9091 56.3164 78.9949 57.718 79.3502C58.1128 79.3502 58.5076 79.3502 58.9025 79.3502C59.6625 79.1331 60.3534 78.8172 60.9259 78.2447C61.6464 77.5242 62.3966 76.8234 63.127 76.1028C63.5021 75.7376 63.9166 75.5994 64.4496 75.6883C65.5847 75.866 66.7297 76.0239 67.8746 76.1423C69.5526 76.3101 71.0628 75.2244 71.507 73.5958C71.7636 72.6482 71.9215 71.671 72.04 70.7037C72.1584 69.7463 72.5137 69.0751 73.4514 68.6902C74.2312 68.3644 74.9616 67.9203 75.7117 67.5156C77.5674 66.4891 78.1991 64.5643 77.2811 62.6495ZM73.8166 60.8827C74.2707 61.7809 74.705 62.689 75.1393 63.597C75.5637 64.4755 75.386 65.0085 74.5174 65.4724C73.7179 65.8968 72.9382 66.3509 72.1189 66.726C70.6877 67.3971 69.9573 68.5125 69.7599 70.0523C69.6415 70.9702 69.4539 71.8882 69.2861 72.7963C69.1578 73.5168 68.5656 73.9017 67.845 73.7932C66.6705 73.6155 65.486 73.4181 64.3016 73.2996C63.2454 73.1911 62.3275 73.5958 61.5576 74.3262C60.7976 75.0566 60.0474 75.787 59.2973 76.5174C58.6458 77.1491 58.024 77.1491 57.3725 76.5174C56.6619 75.8363 55.9512 75.1553 55.2504 74.4644C54.2535 73.4674 53.0789 73.1319 51.6971 73.3589C50.7002 73.5267 49.7032 73.6649 48.7063 73.7932C48.0746 73.882 47.512 73.4674 47.3837 72.816C47.1863 71.7599 46.9987 70.7037 46.831 69.6476C46.6335 68.4138 46.0018 67.486 44.8964 66.9036C43.9883 66.42 43.0703 65.9363 42.1623 65.4527C41.2937 64.9888 41.116 64.4558 41.5404 63.5773C41.9846 62.6692 42.4189 61.7611 42.8631 60.8629C43.4355 59.718 43.4355 58.5829 42.8631 57.4379C42.409 56.5397 41.9747 55.6316 41.5404 54.7236C41.116 53.8451 41.2937 53.3121 42.1623 52.8482C42.942 52.4336 43.7119 51.9697 44.5213 51.6045C45.9821 50.9333 46.7224 49.7982 46.9198 48.2288C47.0284 47.3109 47.2258 46.3929 47.3936 45.4849C47.5021 44.9025 47.9858 44.5077 48.6076 44.4978C49.3973 44.6064 50.2461 44.7446 51.0851 44.8433C51.7464 44.9222 52.3979 45.0999 53.0789 44.9913C53.8883 44.8729 54.5693 44.5176 55.1418 43.9549C55.892 43.2245 56.652 42.4941 57.4022 41.7637C58.024 41.1715 58.6557 41.1715 59.2677 41.7637C59.9882 42.4546 60.7186 43.1357 61.4194 43.8464C62.4163 44.8531 63.5909 45.1887 64.9728 44.9519C65.9697 44.7841 66.9666 44.6459 67.9635 44.5077C68.6149 44.4189 69.1677 44.8433 69.2861 45.5145C69.4737 46.5805 69.6612 47.6563 69.8487 48.7223C70.0659 49.9364 70.7075 50.8346 71.8031 51.417C72.6914 51.8907 73.5797 52.3645 74.4681 52.8284C75.3959 53.322 75.5637 53.8352 75.0998 54.7926C74.6655 55.6711 74.2411 56.5594 73.8068 57.428C73.2441 58.6026 73.2441 59.7377 73.8166 60.8827Z" fill="white"/>
<path d="M66.9269 52.2265C67.2329 51.8415 67.2724 51.4073 67.0651 50.973C66.848 50.5387 66.4828 50.3215 65.9794 50.3314C65.5747 50.3412 65.2983 50.5584 65.0318 50.8249C60.0177 55.8391 55.0035 60.8532 49.9992 65.8674C49.9104 65.9562 49.8117 66.0549 49.7426 66.1635C49.4662 66.5386 49.4366 66.9531 49.634 67.3479C49.8314 67.7724 50.1867 67.9994 50.7592 68.0093C51.0751 68.0389 51.3712 67.8217 51.6377 67.5552C56.6815 62.5115 61.7154 57.4775 66.7592 52.4338C66.8085 52.3745 66.8677 52.3055 66.9269 52.2265Z" fill="white"/>
<path d="M53.7006 57.2504C56.0497 57.2504 57.9646 55.3158 57.9646 52.9666C57.9646 50.6076 56.0399 48.7026 53.6808 48.7026C51.3415 48.7125 49.4464 50.6175 49.4366 52.9666C49.4267 55.3059 51.3514 57.2504 53.7006 57.2504ZM53.6907 51.0518C54.7666 51.0518 55.6154 51.8908 55.6154 52.9568C55.6253 54.0228 54.7666 54.8914 53.7104 54.9012C52.6642 54.9111 51.7857 54.0327 51.7857 52.9765C51.7758 51.9105 52.6247 51.0518 53.6907 51.0518Z" fill="white"/>
<path d="M62.949 61.1097C60.59 61.1295 58.5961 63.1924 58.7343 65.6896C58.8528 67.871 60.8663 69.7167 63.1957 69.6575C65.4561 69.5983 67.3314 67.5749 67.2623 65.2652C67.1933 62.9358 65.229 61.0406 62.949 61.1097ZM62.9983 67.2985C61.9225 67.2985 61.0835 66.4595 61.0835 65.3836C61.0835 64.3176 61.9422 63.449 62.9983 63.449C64.0545 63.449 64.9132 64.3176 64.9132 65.3836C64.9231 66.4496 64.0742 67.2985 62.9983 67.2985Z" fill="white"/>
</svg>
