<svg width="114" height="28" viewBox="0 0 114 28" fill="none" xmlns="http://www.w3.org/2000/svg">
<path d="M107.715 0H92.2847C88.8138 0 86 2.81377 86 6.28472V21.7153C86 25.1862 88.8138 28 92.2847 28H107.715C111.186 28 114 25.1862 114 21.7153V6.28472C114 2.81377 111.186 0 107.715 0Z" fill="#F2F2F2"/>
<path d="M96.9064 12.3151H94.6282V18.9866H96.9064V12.3151Z" fill="#313131"/>
<path d="M96.5234 9.20164C96.3062 9.07017 96.0511 9 95.7901 9C95.6159 9 95.4435 9.03124 95.2827 9.09194C95.1219 9.15264 94.9759 9.24159 94.8531 9.35367C94.7303 9.46576 94.6331 9.59878 94.5672 9.74507C94.5012 9.89136 94.4678 10.048 94.4688 10.2061C94.4703 10.443 94.549 10.6742 94.6951 10.8705C94.8412 11.0668 95.0481 11.2194 95.2897 11.3091C95.5312 11.3988 95.7967 11.4216 96.0525 11.3745C96.3083 11.3275 96.543 11.2127 96.727 11.0448C96.9111 10.8768 97.0362 10.6631 97.0865 10.4306C97.1369 10.1982 97.1103 9.95744 97.0101 9.73872C96.9098 9.51999 96.7405 9.3331 96.5234 9.20164Z" fill="#313131"/>
<path d="M100.563 12.3147H98.3686L98.361 19H100.639V15.6987C100.639 14.8303 100.821 13.9895 102.006 13.9895C103.191 13.9895 103.191 14.9888 103.191 15.7607V18.9862H105.469V15.3265C105.469 13.5277 105.006 12.1493 102.727 12.1493C102.293 12.1339 101.863 12.2258 101.481 12.4151C101.1 12.6045 100.783 12.8842 100.563 13.2245V12.3147Z" fill="#313131"/>
<path d="M71 24.1111C71 25.1425 70.5903 26.1317 69.861 26.861C69.1317 27.5903 68.1425 28 67.1111 28H46.8889C45.8575 28 44.8683 27.5903 44.139 26.861C43.4097 26.1317 43 25.1425 43 24.1111V3.88889C43 2.85749 43.4097 1.86834 44.139 1.13903C44.8683 0.409721 45.8575 0 46.8889 0H67.1111C68.1425 0 69.1317 0.409721 69.861 1.13903C70.5903 1.86834 71 2.85749 71 3.88889V24.1111Z" fill="#F2F2F2"/>
<path d="M62.3494 11.0042C61.9519 11.1894 61.4484 11.3633 60.9972 11.4211C61.456 11.1349 62.184 10.5391 62.3494 10C61.9208 10.2648 61.1455 10.5476 60.6397 10.6499C60.2358 10.1999 59.6598 10 59.0215 10C57.7954 10 56.9403 11.0918 56.9403 12.3684V13.3158C55.1373 13.3158 53.3794 11.8725 52.2854 10.4737C52.0876 10.8262 51.9837 11.2283 51.9847 11.6375C51.9847 12.4992 52.7379 13.3736 53.3343 13.7895C52.9705 13.7776 52.2818 13.4858 51.982 13.3158V13.3428C51.982 14.464 52.7307 15.2252 53.7454 15.4374C53.5601 15.4909 53.3343 15.6842 52.4652 15.6842C52.7474 16.6008 54.1659 17.0854 55.1373 17.1053C54.3773 17.7244 53.0224 18.0526 51.982 18.0526C51.8022 18.0526 51.7048 18.0631 51.5312 18.0417C52.513 18.6954 53.8842 19 55.1373 19C59.2198 19 61.4479 15.7231 61.4479 12.6668C61.4479 12.5664 61.4448 12.2301 61.4398 12.1316C61.8761 11.8085 62.0528 11.4703 62.3494 11.0042Z" fill="#313131"/>
<path d="M24.5 0H3.5C1.56975 0 0 1.56975 0 3.5V24.5C0 26.4303 1.56975 28 3.5 28H24.5C26.4303 28 28 26.4303 28 24.5V3.5C28 1.56975 26.4303 0 24.5 0Z" fill="#F2F2F2"/>
<path fill-rule="evenodd" clip-rule="evenodd" d="M18 12.6154H15.6667V10.7692C15.6667 10.2597 16.0848 10.3077 16.6 10.3077H17.5333V8H15.6667C14.9241 8 14.2119 8.29176 13.6868 8.81109C13.1617 9.33042 12.8667 10.0348 12.8667 10.7692V12.6154H11V14.9231H12.8667V20H15.6667V14.9231H17.0667L18 12.6154Z" fill="#313131"/>
</svg>
